<svg xmlns="http://www.w3.org/2000/svg" xmlns:xlink="http://www.w3.org/1999/xlink" width="500" zoomAndPan="magnify" viewBox="0 0 375 374.999991" height="500" preserveAspectRatio="xMidYMid meet" version="1.0"><defs><clipPath id="id1"><path d="M 82.828125 57.789062 L 292.078125 57.789062 L 292.078125 266.289062 L 82.828125 266.289062 Z M 82.828125 57.789062 " clip-rule="nonzero"/></clipPath></defs><path fill="#604d49" d="M 250.492188 259.3125 C 233.097656 262.425781 211.21875 264.28125 187.449219 264.28125 C 130.789062 264.28125 84.855469 253.734375 84.855469 240.722656 C 84.855469 232.511719 103.152344 225.28125 130.894531 221.0625 C 141.121094 232.980469 159.523438 244.074219 191.28125 244.074219 C 216.828125 244.074219 232.832031 234.257812 242.78125 220.878906 C 271.210938 225.066406 290.046875 232.390625 290.046875 240.722656 C 290.046875 248.277344 274.566406 255 250.492188 259.3125 Z M 250.492188 259.3125 " fill-opacity="1" fill-rule="nonzero"/><g clip-path="url(#id1)"><path fill="#3a2f2e" d="M 278.03125 227.386719 C 270.234375 224.144531 259.210938 221.355469 246.035156 219.28125 C 249.625 213.886719 252.574219 207.695312 254.828125 200.789062 C 257.34375 193.101562 259.007812 184.515625 259.785156 175.265625 C 261.105469 159.546875 259.417969 147.515625 259.347656 147.011719 C 259.210938 146.058594 258.328125 145.398438 257.378906 145.535156 C 256.425781 145.671875 255.765625 146.554688 255.902344 147.507812 C 255.921875 147.625 257.605469 159.648438 256.320312 174.972656 C 255.140625 189.039062 251.140625 208.804688 238.789062 223.082031 C 227.742188 235.855469 211.757812 242.332031 191.285156 242.332031 C 151.464844 242.332031 134.164062 224.671875 127.015625 212.703125 C 126.976562 212.636719 126.941406 212.570312 126.902344 212.5 C 129.292969 211.820312 131.988281 210.730469 134.5 209.394531 C 137.902344 207.585938 142.628906 204.464844 145.820312 199.871094 C 149.019531 195.265625 149.972656 190.25 148.65625 184.976562 C 147.558594 180.578125 144.984375 177.824219 141.585938 177.417969 C 138.558594 177.058594 135.417969 178.617188 132.828125 181.617188 C 131.742188 178.078125 129.398438 175.351562 126.328125 174.320312 C 122.460938 173.027344 118.3125 174.746094 115.230469 178.921875 C 108.9375 187.445312 116.105469 200.882812 121.289062 209.785156 C 118.648438 209.652344 115.785156 208.675781 112.894531 206.910156 C 100.476562 199.320312 86.949219 180.792969 86.605469 165.3125 C 86.496094 160.335938 87.195312 155.425781 88.578125 151.492188 C 90.195312 146.890625 92.652344 143.640625 95.882812 141.835938 C 98.78125 140.214844 102.34375 139.773438 106.472656 140.519531 C 111.332031 141.398438 117 143.925781 123.316406 148.027344 C 129.5 152.039062 137.398438 155.222656 146.792969 157.488281 C 155.417969 159.566406 165.058594 160.824219 175.445312 161.222656 C 177.828125 161.3125 180.214844 161.359375 182.605469 161.359375 C 200.121094 161.359375 217.683594 158.933594 231.710938 154.515625 C 241.671875 151.375 254.304688 145.769531 257.898438 136.910156 C 258.746094 134.828125 259.089844 131.691406 255.925781 128.578125 C 252.269531 124.972656 244.5 122.097656 232.835938 120.039062 C 222.644531 118.234375 209.894531 117.132812 195.96875 116.847656 C 190.5625 116.738281 185.082031 116.757812 179.699219 116.898438 C 181.011719 113.535156 184.105469 111.292969 187.945312 108.515625 C 192.582031 105.15625 198.347656 100.980469 202.449219 93.332031 C 205.660156 87.34375 206.769531 81.050781 205.664062 75.125 C 204.660156 69.734375 201.867188 65.019531 197.804688 61.855469 C 194.316406 59.132812 190.230469 57.792969 185.988281 57.980469 C 181.414062 58.179688 176.917969 60.191406 172.984375 63.796875 C 169.4375 67.046875 167.535156 70.980469 167.476562 75.179688 C 167.429688 78.753906 168.726562 82.351562 171.136719 85.304688 C 175.402344 90.542969 181.605469 92.082031 185.882812 88.96875 C 186.660156 88.402344 186.832031 87.3125 186.269531 86.535156 C 185.703125 85.757812 184.617188 85.582031 183.835938 86.148438 C 180.738281 88.40625 176.457031 86.324219 173.832031 83.097656 C 170.527344 79.042969 168.933594 72.230469 175.332031 66.367188 C 182.992188 59.351562 190.859375 60.855469 195.667969 64.605469 C 201.859375 69.433594 205.664062 79.964844 199.382812 91.683594 C 195.664062 98.621094 190.480469 102.375 185.90625 105.6875 C 181.539062 108.851562 177.355469 111.882812 175.996094 117.019531 C 169.445312 117.265625 163.09375 117.695312 157.261719 118.296875 C 144.703125 119.597656 134.90625 121.632812 128.921875 124.1875 C 123.90625 126.324219 121.382812 128.941406 121.417969 131.964844 C 121.449219 134.710938 123.316406 137.144531 126.960938 139.191406 C 131.773438 141.898438 139.765625 144.042969 150.714844 145.566406 C 160.441406 146.925781 171.957031 147.699219 184.011719 147.8125 C 203.285156 147.992188 228.964844 146.3125 237.910156 140.972656 C 240.292969 139.550781 241.488281 137.855469 241.460938 135.941406 C 241.4375 134.308594 240.828125 132.933594 239.65625 131.851562 C 235.65625 128.15625 225.464844 128.835938 213.664062 129.621094 C 205.304688 130.175781 196.664062 130.753906 189.949219 129.785156 C 180.710938 128.453125 179.320312 124.703125 179.082031 122 C 179.03125 121.441406 179.011719 120.90625 179.027344 120.398438 C 184.503906 120.238281 190.167969 120.214844 195.898438 120.332031 C 209.652344 120.613281 222.21875 121.699219 232.238281 123.46875 C 245.882812 125.882812 251.328125 128.929688 253.488281 131.0625 C 254.988281 132.539062 255.355469 133.933594 254.679688 135.59375 C 252.273438 141.53125 243.746094 147.070312 230.671875 151.1875 C 215.097656 156.097656 195.019531 158.484375 175.585938 157.738281 C 154.40625 156.925781 136.519531 152.4375 125.21875 145.097656 C 112.226562 136.664062 101.789062 134.542969 94.195312 138.789062 C 90.199219 141.023438 87.207031 144.90625 85.300781 150.332031 C 83.355469 155.871094 83.050781 161.574219 83.132812 165.386719 C 83.359375 175.671875 88.394531 185.210938 92.578125 191.40625 C 97.816406 199.160156 104.5625 205.894531 111.085938 209.882812 C 115.25 212.425781 119.46875 213.578125 123.300781 213.21875 C 124.40625 215.1875 125.773438 217.335938 127.460938 219.558594 C 114.746094 221.652344 104.101562 224.414062 96.5625 227.585938 C 87.464844 231.417969 82.851562 235.835938 82.851562 240.714844 C 82.851562 244.695312 85.917969 248.375 91.96875 251.660156 C 97.296875 254.550781 104.863281 257.136719 114.464844 259.339844 C 133.984375 263.824219 159.910156 266.292969 187.460938 266.292969 C 215.011719 266.292969 240.933594 263.824219 260.453125 259.339844 C 270.054688 257.136719 277.625 254.550781 282.953125 251.660156 C 289 248.375 292.066406 244.695312 292.066406 240.714844 C 292.058594 235.742188 287.339844 231.253906 278.03125 227.386719 Z M 180.140625 130.0625 C 182.394531 131.621094 185.441406 132.660156 189.445312 133.238281 C 196.523438 134.257812 205.351562 133.667969 213.890625 133.101562 C 219.429688 132.734375 224.660156 132.386719 228.933594 132.519531 C 233.265625 132.65625 236.078125 133.296875 237.292969 134.417969 C 237.753906 134.84375 237.964844 135.332031 237.976562 135.996094 C 237.984375 136.550781 237.308594 137.277344 236.125 137.984375 C 229.375 142.007812 208.441406 144.558594 184.035156 144.332031 C 158.425781 144.089844 137.203125 140.957031 128.660156 136.15625 C 126.953125 135.199219 124.914062 133.6875 124.894531 131.929688 C 124.878906 130.515625 126.839844 128.863281 130.28125 127.398438 C 138.734375 123.792969 155.730469 121.292969 175.539062 120.515625 C 175.53125 121.089844 175.554688 121.6875 175.609375 122.3125 C 175.902344 125.582031 177.425781 128.191406 180.140625 130.0625 Z M 118.023438 180.996094 C 119.761719 178.644531 121.785156 177.386719 123.75 177.386719 C 124.246094 177.386719 124.738281 177.46875 125.222656 177.628906 C 128.082031 178.585938 130.050781 182.160156 130.011719 186.316406 C 130.003906 187.121094 130.550781 187.828125 131.332031 188.023438 C 132.109375 188.21875 132.921875 187.855469 133.292969 187.140625 C 135.441406 183.023438 138.53125 180.566406 141.171875 180.878906 C 143.082031 181.105469 144.542969 182.859375 145.277344 185.820312 C 146.339844 190.074219 145.5625 194.132812 142.960938 197.878906 C 138.542969 204.242188 130.007812 208.15625 125.078125 209.371094 C 120.320312 201.273438 112.761719 188.128906 118.023438 180.996094 Z M 281.023438 248.121094 C 276.019531 250.839844 268.792969 253.292969 259.546875 255.417969 C 240.3125 259.832031 214.707031 262.265625 187.453125 262.265625 C 160.195312 262.265625 134.589844 259.832031 115.355469 255.417969 C 106.113281 253.292969 98.886719 250.839844 93.878906 248.121094 C 89.292969 245.632812 86.871094 243.074219 86.871094 240.722656 C 86.871094 237.707031 90.863281 234.363281 98.113281 231.3125 C 105.820312 228.070312 116.992188 225.257812 130.4375 223.175781 C 140.40625 234.269531 158.632812 245.816406 191.285156 245.816406 C 212.8125 245.816406 229.679688 238.9375 241.417969 225.363281 C 242.09375 224.582031 242.75 223.78125 243.390625 222.953125 C 257.15625 225.011719 268.59375 227.828125 276.488281 231.109375 C 283.9375 234.203125 288.035156 237.617188 288.035156 240.722656 C 288.03125 243.074219 285.609375 245.632812 281.023438 248.121094 Z M 281.023438 248.121094 " fill-opacity="1" fill-rule="nonzero"/></g></svg>